  0
SECTION
  2
BLOCKS
  0
ENDSEC
  0
SECTION
  2
ENTITIES
  0
LINE
  8
0
 10
1.54999
 11
1.54538
 20
4.05547
 21
4.03702
  0
LINE
  8
0
 10
1.54538
 11
1.54538
 20
4.03702
 21
4.01668
  0
LINE
  8
0
 10
1.54538
 11
1.54999
 20
4.01668
 21
3.95274
  0
LINE
  8
0
 10
1.54999
 11
1.54999
 20
3.95274
 21
3.89999
  0
LINE
  8
0
 10
1.54999
 11
1.55379
 20
3.89999
 21
3.89999
  0
LINE
  8
0
 10
1.55379
 11
1.55431
 20
3.89999
 21
3.89284
  0
LINE
  8
0
 10
1.55431
 11
1.5974
 20
3.89284
 21
3.88704
  0
LINE
  8
0
 10
1.5974
 11
1.63821
 20
3.88704
 21
3.87564
  0
LINE
  8
0
 10
1.63821
 11
1.6769
 20
3.87564
 21
3.86076
  0
LINE
  8
0
 10
1.6769
 11
1.71288
 20
3.86076
 21
3.84187
  0
LINE
  8
0
 10
1.71288
 11
1.74582
 20
3.84187
 21
3.81921
  0
LINE
  8
0
 10
1.74582
 11
1.77539
 20
3.81921
 21
3.79286
  0
LINE
  8
0
 10
1.77539
 11
1.80135
 20
3.79286
 21
3.76321
  0
LINE
  8
0
 10
1.80135
 11
1.82341
 20
3.76321
 21
3.73048
  0
LINE
  8
0
 10
1.82341
 11
1.84137
 20
3.73048
 21
3.69502
  0
LINE
  8
0
 10
1.84137
 11
1.85503
 20
3.69502
 21
3.65714
  0
LINE
  8
0
 10
1.85503
 11
1.86429
 20
3.65714
 21
3.61722
  0
LINE
  8
0
 10
1.86429
 11
1.86908
 20
3.61722
 21
3.57564
  0
LINE
  8
0
 10
1.86908
 11
1.86931
 20
3.57564
 21
3.53281
  0
LINE
  8
0
 10
1.86931
 11
1.86549
 20
3.53281
 21
3.48912
  0
LINE
  8
0
 10
1.86549
 11
1.85617
 20
3.48912
 21
3.44501
  0
LINE
  8
0
 10
1.85617
 11
1.86125
 20
3.44501
 21
3.44501
  0
LINE
  8
0
 10
1.86125
 11
1.5
 20
3.44501
 21
2
  0
LINE
  8
0
 10
1.5
 11
1.13875
 20
2
 21
3.44501
  0
LINE
  8
0
 10
1.13875
 11
1.14334
 20
3.44501
 21
3.44501
  0
LINE
  8
0
 10
1.14334
 11
1.13327
 20
3.44501
 21
3.48912
  0
LINE
  8
0
 10
1.13327
 11
1.13017
 20
3.48912
 21
3.53281
  0
LINE
  8
0
 10
1.13017
 11
1.1304
 20
3.53281
 21
3.57564
  0
LINE
  8
0
 10
1.1304
 11
1.13518
 20
3.57564
 21
3.61722
  0
LINE
  8
0
 10
1.13518
 11
1.14442
 20
3.61722
 21
3.65714
  0
LINE
  8
0
 10
1.14442
 11
1.1581
 20
3.65714
 21
3.69502
  0
LINE
  8
0
 10
1.1581
 11
1.17604
 20
3.69502
 21
3.73048
  0
LINE
  8
0
 10
1.17604
 11
1.1981
 20
3.73048
 21
3.76321
  0
LINE
  8
0
 10
1.1981
 11
1.22406
 20
3.76321
 21
3.79286
  0
LINE
  8
0
 10
1.22406
 11
1.25357
 20
3.79286
 21
3.8195
  0
LINE
  8
0
 10
1.25357
 11
1.28661
 20
3.8195
 21
3.84187
  0
LINE
  8
0
 10
1.28661
 11
1.3226
 20
3.84187
 21
3.86076
  0
LINE
  8
0
 10
1.3226
 11
1.36131
 20
3.86076
 21
3.87564
  0
LINE
  8
0
 10
1.36131
 11
1.4021
 20
3.87564
 21
3.88739
  0
LINE
  8
0
 10
1.4021
 11
1.44475
 20
3.88739
 21
3.89537
  0
LINE
  8
0
 10
1.44475
 11
1.44513
 20
3.89537
 21
3.89999
  0
LINE
  8
0
 10
1.44513
 11
1.45
 20
3.89999
 21
3.89999
  0
LINE
  8
0
 10
1.45
 11
1.45
 20
3.89999
 21
3.95859
  0
LINE
  8
0
 10
1.45
 11
1.45477
 20
3.95859
 21
4.0161
  0
LINE
  8
0
 10
1.45477
 11
1.45473
 20
4.0161
 21
4.03505
  0
LINE
  8
0
 10
1.45473
 11
1.45
 20
4.03505
 21
4.05382
  0
LINE
  8
0
 10
1.45
 11
1.45
 20
4.05382
 21
4.09999
  0
LINE
  8
0
 10
1.45
 11
-0.449997
 20
4.09999
 21
4.09999
  0
LINE
  8
0
 10
-0.449997
 11
-0.449997
 20
4.09999
 21
4.02177
  0
LINE
  8
0
 10
-0.449997
 11
-0.454605
 20
4.02177
 21
3.99809
  0
LINE
  8
0
 10
-0.454605
 11
-0.449997
 20
3.99809
 21
3.97493
  0
LINE
  8
0
 10
-0.449997
 11
-0.449997
 20
3.97493
 21
3.89999
  0
LINE
  8
0
 10
-0.449997
 11
-0.435089
 20
3.89999
 21
3.89999
  0
LINE
  8
0
 10
-0.435089
 11
-0.434097
 20
3.89999
 21
3.895
  0
LINE
  8
0
 10
-0.434097
 11
-0.389572
 20
3.895
 21
3.89291
  0
LINE
  8
0
 10
-0.389572
 11
-0.344711
 20
3.89291
 21
3.88704
  0
LINE
  8
0
 10
-0.344711
 11
-0.299606
 20
3.88704
 21
3.87564
  0
LINE
  8
0
 10
-0.299606
 11
-0.253479
 20
3.87564
 21
3.86076
  0
LINE
  8
0
 10
-0.253479
 11
-0.208069
 20
3.86076
 21
3.84187
  0
LINE
  8
0
 10
-0.208069
 11
-0.163788
 20
3.84187
 21
3.81923
  0
LINE
  8
0
 10
-0.163788
 11
-0.121033
 20
3.81923
 21
3.79286
  0
LINE
  8
0
 10
-0.121033
 11
-0.0802612
 20
3.79286
 21
3.76321
  0
LINE
  8
0
 10
-0.0802612
 11
-0.0418396
 20
3.76321
 21
3.73048
  0
LINE
  8
0
 10
-0.0418396
 11
-0.00614929
 20
3.73048
 21
3.69502
  0
LINE
  8
0
 10
-0.00614929
 11
0.0264587
 20
3.69502
 21
3.65714
  0
LINE
  8
0
 10
0.0264587
 11
0.056366
 20
3.65714
 21
3.61722
  0
LINE
  8
0
 10
0.056366
 11
0.0816803
 20
3.61722
 21
3.57564
  0
LINE
  8
0
 10
0.0816803
 11
0.102982
 20
3.57564
 21
3.53281
  0
LINE
  8
0
 10
0.102982
 11
0.120819
 20
3.53281
 21
3.48912
  0
LINE
  8
0
 10
0.120819
 11
0.133835
 20
3.48912
 21
3.44501
  0
LINE
  8
0
 10
0.133835
 11
0.138748
 20
3.44501
 21
3.44501
  0
LINE
  8
0
 10
0.138748
 11
0.861252
 20
3.44501
 21
0.554977
  0
LINE
  8
0
 10
0.861252
 11
0.856766
 20
0.554977
 21
0.554977
  0
LINE
  8
0
 10
0.856766
 11
0.86705
 20
0.554977
 21
0.510864
  0
LINE
  8
0
 10
0.86705
 11
0.869919
 20
0.510864
 21
0.467178
  0
LINE
  8
0
 10
0.869919
 11
0.86972
 20
0.467178
 21
0.424347
  0
LINE
  8
0
 10
0.86972
 11
0.864975
 20
0.424347
 21
0.382767
  0
LINE
  8
0
 10
0.864975
 11
0.855042
 20
0.382767
 21
0.34285
  0
LINE
  8
0
 10
0.855042
 11
0.84137
 20
0.34285
 21
0.304962
  0
LINE
  8
0
 10
0.84137
 11
0.82341
 20
0.304962
 21
0.269501
  0
LINE
  8
0
 10
0.82341
 11
0.801346
 20
0.269501
 21
0.236771
  0
LINE
  8
0
 10
0.801346
 11
0.775406
 20
0.236771
 21
0.207123
  0
LINE
  8
0
 10
0.775406
 11
0.745895
 20
0.207123
 21
0.180481
  0
LINE
  8
0
 10
0.745895
 11
0.712875
 20
0.180481
 21
0.158112
  0
LINE
  8
0
 10
0.712875
 11
0.676895
 20
0.158112
 21
0.139221
  0
LINE
  8
0
 10
0.676895
 11
0.638214
 20
0.139221
 21
0.124344
  0
LINE
  8
0
 10
0.638214
 11
0.597488
 20
0.124344
 21
0.11261
  0
LINE
  8
0
 10
0.597488
 11
0.554855
 20
0.11261
 21
0.104996
  0
LINE
  8
0
 10
0.554855
 11
0.554459
 20
0.104996
 21
0.0999908
  0
LINE
  8
0
 10
0.554459
 11
0.549988
 20
0.0999908
 21
0.0999908
  0
LINE
  8
0
 10
0.549988
 11
0.549988
 20
0.0999908
 21
0.0424957
  0
LINE
  8
0
 10
0.549988
 11
0.54538
 20
0.0424957
 21
-0.0166779
  0
LINE
  8
0
 10
0.54538
 11
0.54538
 20
-0.0166779
 21
-0.0370178
  0
LINE
  8
0
 10
0.54538
 11
0.549988
 20
-0.0370178
 21
-0.0554657
  0
LINE
  8
0
 10
0.549988
 11
0.549988
 20
-0.0554657
 21
-0.0999908
  0
LINE
  8
0
 10
0.549988
 11
2.45
 20
-0.0999908
 21
-0.0999908
  0
LINE
  8
0
 10
2.45
 11
2.45
 20
-0.0999908
 21
-0.0555115
  0
LINE
  8
0
 10
2.45
 11
2.45486
 20
-0.0555115
 21
-0.036026
  0
LINE
  8
0
 10
2.45486
 11
2.45483
 20
-0.036026
 21
-0.0158539
  0
LINE
  8
0
 10
2.45483
 11
2.45
 20
-0.0158539
 21
0.0491333
  0
LINE
  8
0
 10
2.45
 11
2.45
 20
0.0491333
 21
0.0999908
  0
LINE
  8
0
 10
2.45
 11
2.44621
 20
0.0999908
 21
0.0999908
  0
LINE
  8
0
 10
2.44621
 11
2.44568
 20
0.0999908
 21
0.107147
  0
LINE
  8
0
 10
2.44568
 11
2.40276
 20
0.107147
 21
0.113586
  0
LINE
  8
0
 10
2.40276
 11
2.36177
 20
0.113586
 21
0.124344
  0
LINE
  8
0
 10
2.36177
 11
2.32309
 20
0.124344
 21
0.139221
  0
LINE
  8
0
 10
2.32309
 11
2.28712
 20
0.139221
 21
0.158112
  0
LINE
  8
0
 10
2.28712
 11
2.25417
 20
0.158112
 21
0.180771
  0
LINE
  8
0
 10
2.25417
 11
2.22459
 20
0.180771
 21
0.207123
  0
LINE
  8
0
 10
2.22459
 11
2.19864
 20
0.207123
 21
0.236771
  0
LINE
  8
0
 10
2.19864
 11
2.17659
 20
0.236771
 21
0.269501
  0
LINE
  8
0
 10
2.17659
 11
2.15862
 20
0.269501
 21
0.304962
  0
LINE
  8
0
 10
2.15862
 11
2.14479
 20
0.304962
 21
0.34285
  0
LINE
  8
0
 10
2.14479
 11
2.13554
 20
0.34285
 21
0.382767
  0
LINE
  8
0
 10
2.13554
 11
2.13078
 20
0.382767
 21
0.424347
  0
LINE
  8
0
 10
2.13078
 11
2.13055
 20
0.424347
 21
0.467178
  0
LINE
  8
0
 10
2.13055
 11
2.13489
 20
0.467178
 21
0.510864
  0
LINE
  8
0
 10
2.13489
 11
2.14369
 20
0.510864
 21
0.554977
  0
LINE
  8
0
 10
2.14369
 11
2.13875
 20
0.554977
 21
0.554977
  0
LINE
  8
0
 10
2.13875
 11
2.86125
 20
0.554977
 21
3.44501
  0
LINE
  8
0
 10
2.86125
 11
2.86551
 20
3.44501
 21
3.44501
  0
LINE
  8
0
 10
2.86551
 11
2.87874
 20
3.44501
 21
3.48912
  0
LINE
  8
0
 10
2.87874
 11
2.8961
 20
3.48912
 21
3.53281
  0
LINE
  8
0
 10
2.8961
 11
2.91754
 20
3.53281
 21
3.57564
  0
LINE
  8
0
 10
2.91754
 11
2.94284
 20
3.57564
 21
3.61722
  0
LINE
  8
0
 10
2.94284
 11
2.97171
 20
3.61722
 21
3.65714
  0
LINE
  8
0
 10
2.97171
 11
3.00606
 20
3.65714
 21
3.69502
  0
LINE
  8
0
 10
3.00606
 11
3.04175
 20
3.69502
 21
3.73048
  0
LINE
  8
0
 10
3.04175
 11
3.08017
 20
3.73048
 21
3.76321
  0
LINE
  8
0
 10
3.08017
 11
3.12094
 20
3.76321
 21
3.79286
  0
LINE
  8
0
 10
3.12094
 11
3.16376
 20
3.79286
 21
3.81949
  0
LINE
  8
0
 10
3.16376
 11
3.20798
 20
3.81949
 21
3.84187
  0
LINE
  8
0
 10
3.20798
 11
3.25339
 20
3.84187
 21
3.86076
  0
LINE
  8
0
 10
3.25339
 11
3.29951
 20
3.86076
 21
3.87564
  0
LINE
  8
0
 10
3.29951
 11
3.34465
 20
3.87564
 21
3.88739
  0
LINE
  8
0
 10
3.34465
 11
3.3898
 20
3.88739
 21
3.89529
  0
LINE
  8
0
 10
3.3898
 11
3.43388
 20
3.89529
 21
3.89539
  0
LINE
  8
0
 10
3.43388
 11
3.43478
 20
3.89539
 21
3.89999
  0
LINE
  8
0
 10
3.43478
 11
3.45
 20
3.89999
 21
3.89999
  0
LINE
  8
0
 10
3.45
 11
3.45
 20
3.89999
 21
3.97823
  0
LINE
  8
0
 10
3.45
 11
3.45461
 20
3.97823
 21
4.00191
  0
LINE
  8
0
 10
3.45461
 11
3.45
 20
4.00191
 21
4.02458
  0
LINE
  8
0
 10
3.45
 11
3.45
 20
4.02458
 21
4.09999
  0
LINE
  8
0
 10
3.45
 11
1.54999
 20
4.09999
 21
4.09999
  0
LINE
  8
0
 10
1.54999
 11
1.54999
 20
4.09999
 21
4.05547
  0
ENDSEC
  0
SECTION
  2
OBJECTS
  0
DICTIONARY
  0
ENDSEC
  0
EOF
