# Alias OBJ Model File
# Exported from SketchUp, (c) 2000-2012 Trimble Navigation Limited
# File units = millimeters

mtllib Dc Converter cover 2.mtl

g Mesh1 Model

usemtl FrontColor
v 50.3 0 -25.4
vt -1.98031 0
vn 0 0 -1
v 0 0 -25.4
vt 0 0
v 0 4 -25.4
vt 0 0.15748
v 50.3 4 -25.4
vt -1.98031 0.15748
f 1/1/1 2/2/1 3/3/1 4/4/1 

vt 0 1
vn 0 -1 -0
vt -1.98031 1
v 50.3 0 -0
v 0 0 -0
f 2/5/2 1/6/2 5/1/2 6/2/2 

vn 1 0 -0
vt 1 0
vt 1 0.15748
v 50.3 4 -0
f 5/2/3 1/7/3 4/8/3 7/3/3 

vt 1.98031 1
vn 0 1 -0
v 49.4 4 -24.5
vt 1.94488 0.964567
vt 1.98031 0
f 4/9/4 8/10/4 7/11/4

v 1 4 -24.5
vt 0.0393701 0.964567
f 4/9/4 9/12/4 8/10/4

f 3/5/4 9/12/4 4/9/4

v 1 4 -1
vt 0.0393701 0.0393701
f 9/12/4 3/5/4 10/13/4

v 0 4 -0
f 11/2/4 10/13/4 3/5/4

f 10/13/4 11/2/4 7/11/4

vn 0 0 1
vt 1.98031 0.15748
f 6/2/5 5/11/5 7/14/5 11/3/5 

vt -1 0
vn -1 0 -0
vt -1 0.15748
f 2/15/6 6/2/6 11/3/6 3/16/6 

v 49.4 4 -1
vt 1.94488 0.0393701
f 10/13/4 7/11/4 12/17/4

f 12/17/4 7/11/4 8/10/4

vt -0.0393701 0.15748
vt -0.964567 0.15748
v 49.4 3 -24.5
vt -0.964567 0.11811
v 49.4 3 -1
vt -0.0393701 0.11811
f 12/18/6 8/19/6 13/20/6 14/21/6 

vt 1.94488 0.15748
vt 0.0393701 0.15748
v 1 3 -24.5
vt 0.0393701 0.11811
vt 1.94488 0.11811
f 8/22/5 9/23/5 15/24/5 13/25/5 

vt 0.964567 0.15748
v 1 3 -1
vt 0.964567 0.11811
f 9/26/3 10/23/3 16/24/3 15/27/3 

vt -1.94488 0.15748
vt -1.94488 0.11811
f 10/18/1 12/28/1 14/29/1 16/21/1 

v 7.4 3 -2.4
vt 0.291339 0.0944882
f 17/30/4 16/13/4 14/17/4

f 16/13/4 17/30/4 15/12/4

v 7.4 3 -4.9
vt 0.291339 0.192913
f 18/31/4 15/12/4 17/30/4

f 15/12/4 18/31/4 13/10/4

v 34.9 3 -4.9
vt 1.37402 0.192913
f 13/10/4 18/31/4 19/32/4

vt 1.37402 0.11811
vt 0.291339 0.11811
v 7.4 2 -4.9
vt 0.291339 0.0787402
v 34.9 2 -4.9
vt 1.37402 0.0787402
f 19/33/5 18/34/5 20/35/5 21/36/5 

vt 0.192913 0.11811
vt 0.0944882 0.11811
v 7.4 2 -2.4
vt 0.0944882 0.0787402
vt 0.192913 0.0787402
f 18/37/3 17/38/3 22/39/3 20/40/3 

vt -0.291339 0.11811
v 34.9 3 -2.4
vt -1.37402 0.11811
v 34.9 2 -2.4
vt -1.37402 0.0787402
vt -0.291339 0.0787402
f 17/41/1 23/42/1 24/43/1 22/44/1 

vt 1.37402 0.0944882
f 17/30/4 14/17/4 23/45/4

f 23/45/4 14/17/4 19/32/4

f 13/10/4 19/32/4 14/17/4

vt -0.0944882 0.11811
vt -0.192913 0.11811
vt -0.192913 0.0787402
vt -0.0944882 0.0787402
f 23/46/6 19/47/6 21/48/6 24/49/6 

f 21/32/4 20/31/4 22/30/4 24/45/4 

