# Alias OBJ Model File
# Exported from SketchUp, (c) 2000-2012 Trimble Navigation Limited
# File units = millimeters

mtllib Dc Converter cover.mtl

g Mesh1 Model

usemtl FrontColor
v 50.3 0 -25.4
vt -1.98031 0
vn 0 0 -1
v 0 0 -25.4
vt 0 0
v 0 4 -25.4
vt 0 0.15748
v 50.3 4 -25.4
vt -1.98031 0.15748
f 1/1/1 2/2/1 3/3/1 4/4/1 

v 8.6 -7.04992e-016 -23.1
vt -0.338583 0.909449
vn 0 -1 -0
vt 0 1
vt -1.98031 1
f 5/5/2 2/6/2 1/7/2

v 8.18589 -7.04992e-016 -23.0455
vt -0.322279 0.907302
f 6/8/2 2/6/2 5/5/2

v 7.8 -7.04992e-016 -22.8856
vt -0.307087 0.901009
f 7/9/2 2/6/2 6/8/2

v 7.46863 -7.04992e-016 -22.6314
vt -0.294041 0.890999
f 8/10/2 2/6/2 7/9/2

v 7.21436 -7.04992e-016 -22.3
vt -0.28403 0.877953
f 9/11/2 2/6/2 8/10/2

v 7.05452 -7.04992e-016 -21.9141
vt -0.277737 0.86276
f 10/12/2 2/6/2 9/11/2

v 0 0 -0
f 2/6/2 10/12/2 11/2/2

v 7 -7.04992e-016 -21.5
vt -0.275591 0.846457
f 11/2/2 10/12/2 12/13/2

v 7.05452 3 -21.9141
vt 0.891631 0.11811
vn 0.965926 0 0.258819
v 7 3 -21.5
vt 0.875187 0.11811
vn 1 0 -4.47921e-016
vt 0.875187 -2.77556e-017
vt 0.891631 -2.77556e-017
f 13/14/3 14/15/4 12/16/4 10/17/3 

vt 0.277737 0.86276
vn 0 1 -0
v 1 3 -24.5
vt 0.0393701 0.964567
vt 0.275591 0.846457
f 13/18/5 15/19/5 14/20/5

v 7.21436 3 -22.3
vt 0.28403 0.877953
f 16/21/5 15/19/5 13/18/5

v 7.46863 3 -22.6314
vt 0.294041 0.890999
f 17/22/5 15/19/5 16/21/5

v 7.8 3 -22.8856
vt 0.307087 0.901009
f 18/23/5 15/19/5 17/22/5

v 8.18589 3 -23.0455
vt 0.322279 0.907302
f 19/24/5 15/19/5 18/23/5

v 8.6 3 -23.1
vt 0.338583 0.909449
f 20/25/5 15/19/5 19/24/5

v 49.4 3 -24.5
vt 1.94488 0.964567
f 15/19/5 20/25/5 21/26/5

v 9.01411 3 -23.0455
vt 0.354886 0.907302
f 21/26/5 20/25/5 22/27/5

vt 0.233423 0.11811
vn -0.258819 0 0.965926
vt 0.216979 0.11811
vn -2.23961e-016 0 1
vt 0.216979 -2.77556e-017
v 9.01411 -7.04992e-016 -23.0455
vt 0.233423 -2.77556e-017
f 22/28/6 20/29/7 5/30/7 23/31/6 

vt 0.454393 0.11811
vt 0.437949 0.11811
vn 0.258819 0 0.965926
vt 0.437949 -2.77556e-017
vt 0.454393 -2.77556e-017
f 20/32/7 19/33/8 6/34/8 5/35/7 

vt 0.644957 0.11811
vt 0.628512 0.11811
vn 0.5 0 0.866025
vt 0.628512 -2.77556e-017
vt 0.644957 -2.77556e-017
f 19/36/8 18/37/9 7/38/9 6/39/8 

vt 0.792128 0.11811
vt 0.775684 0.11811
vn 0.707107 0 0.707107
vt 0.775684 -2.77556e-017
vt 0.792128 -2.77556e-017
f 18/40/9 17/41/10 8/42/10 7/43/9 

vt 0.885877 0.11811
vt 0.869433 0.11811
vn 0.866025 0 0.5
vt 0.869433 -2.77556e-017
vt 0.885877 -2.77556e-017
f 17/44/10 16/45/11 9/46/11 8/47/10 

vt 0.919816 0.11811
vt 0.903372 0.11811
vt 0.903372 -2.77556e-017
vt 0.919816 -2.77556e-017
f 16/48/11 13/49/3 10/50/3 9/51/11 

vt -0.354886 0.907302
f 5/5/2 1/7/2 23/52/2

v 9.4 -7.04992e-016 -22.8856
vt -0.370079 0.901009
f 23/52/2 1/7/2 24/53/2

v 9.73137 -7.04992e-016 -22.6314
vt -0.383125 0.890999
f 24/53/2 1/7/2 25/54/2

v 9.98564 -7.04992e-016 -22.3
vt -0.393135 0.877953
f 25/54/2 1/7/2 26/55/2

v 10.1455 -7.04992e-016 -21.9141
vt -0.399428 0.86276
f 26/55/2 1/7/2 27/56/2

v 10.2 -7.04992e-016 -21.5
vt -0.401575 0.846457
f 27/56/2 1/7/2 28/57/2

v 41.5144 2.11497e-015 -5.3
vt -1.63442 0.208661
f 28/57/2 1/7/2 29/58/2

v 41.7686 2.11497e-015 -5.63137
vt -1.64443 0.221708
f 29/58/2 1/7/2 30/59/2

v 42.1 2.11497e-015 -5.88564
vt -1.65748 0.231718
f 30/59/2 1/7/2 31/60/2

v 42.4859 2.11497e-015 -6.04548
vt -1.67267 0.238011
f 31/60/2 1/7/2 32/61/2

v 42.9 2.11497e-015 -6.1
vt -1.68898 0.240157
f 32/61/2 1/7/2 33/62/2

v 43.3141 2.11497e-015 -6.04548
vt -1.70528 0.238011
f 33/62/2 1/7/2 34/63/2

v 43.7 2.11497e-015 -5.88564
vt -1.72047 0.231718
f 34/63/2 1/7/2 35/64/2

v 44.0314 2.11497e-015 -5.63137
vt -1.73352 0.221708
f 35/64/2 1/7/2 36/65/2

v 44.2856 2.11497e-015 -5.3
vt -1.74353 0.208661
f 36/65/2 1/7/2 37/66/2

v 44.4455 2.11497e-015 -4.91411
vt -1.74982 0.193469
f 37/66/2 1/7/2 38/67/2

v 44.5 2.11497e-015 -4.5
vt -1.75197 0.177165
f 38/67/2 1/7/2 39/68/2

v 50.3 0 -0
f 40/1/2 39/68/2 1/7/2

v 44.4455 2.11497e-015 -4.08589
vt -1.74982 0.160862
f 40/1/2 41/69/2 39/68/2

v 44.2856 2.11497e-015 -3.7
vt -1.74353 0.145669
f 40/1/2 42/70/2 41/69/2

v 44.0314 2.11497e-015 -3.36863
vt -1.73352 0.132623
f 40/1/2 43/71/2 42/70/2

v 43.7 2.11497e-015 -3.11436
vt -1.72047 0.122613
f 40/1/2 44/72/2 43/71/2

v 43.3141 2.11497e-015 -2.95452
vt -1.70528 0.11632
f 40/1/2 45/73/2 44/72/2

v 42.9 2.11497e-015 -2.9
vt -1.68898 0.114173
f 40/1/2 46/74/2 45/73/2

v 42.4859 2.11497e-015 -2.95452
vt -1.67267 0.11632
f 40/1/2 47/75/2 46/74/2

f 11/2/2 47/75/2 40/1/2

v 42.1 2.11497e-015 -3.11436
vt -1.65748 0.122613
f 47/75/2 11/2/2 48/76/2

v 7.8 -7.04992e-016 -20.1144
vt -0.307087 0.791904
f 48/76/2 11/2/2 49/77/2

v 7.46863 -7.04992e-016 -20.3686
vt -0.294041 0.801915
f 49/77/2 11/2/2 50/78/2

v 7.21436 -7.04992e-016 -20.7
vt -0.28403 0.814961
f 50/78/2 11/2/2 51/79/2

v 7.05452 -7.04992e-016 -21.0859
vt -0.277737 0.830153
f 51/79/2 11/2/2 52/80/2

f 52/80/2 11/2/2 12/13/2

vt 0.803243 0.11811
v 7.05452 3 -21.0859
vt 0.786799 0.11811
vn 0.965926 0 -0.258819
vt 0.786799 -2.77556e-017
vt 0.803243 -2.77556e-017
f 14/81/4 53/82/12 52/83/12 12/84/4 

vt 0.277737 0.830153
f 15/19/5 53/85/5 14/20/5

v 7.21436 3 -20.7
vt 0.28403 0.814961
f 15/19/5 54/86/5 53/85/5

v 7.46863 3 -20.3686
vt 0.294041 0.801915
f 15/19/5 55/87/5 54/86/5

v 7.8 3 -20.1144
vt 0.307087 0.791904
f 15/19/5 56/88/5 55/87/5

v 32.4 3 -2.5
vt 1.27559 0.0984252
f 15/19/5 57/89/5 56/88/5

v 1 3 -1
vt 0.0393701 0.0393701
f 58/90/5 57/89/5 15/19/5

v 49.4 3 -1
vt 1.94488 0.0393701
f 57/89/5 58/90/5 59/91/5

v 1 4 -1
vt -0.0393701 0.15748
v 49.4 4 -1
vt -1.94488 0.15748
vt -1.94488 0.11811
vt -0.0393701 0.11811
f 60/92/1 61/93/1 59/94/1 58/95/1 

v 50.3 4 -0
vt 1.98031 0
f 60/90/5 62/96/5 61/91/5

v 0 4 -0
f 60/90/5 63/2/5 62/96/5

f 63/2/5 60/90/5 3/6/5

v 1 4 -24.5
f 64/19/5 3/6/5 60/90/5

vt 1.98031 1
f 3/6/5 64/19/5 4/97/5

v 49.4 4 -24.5
f 4/97/5 64/19/5 65/26/5

vt 1.94488 0.15748
vn 0 0 1
vt 0.0393701 0.15748
vt 0.0393701 0.11811
vt 1.94488 0.11811
f 65/98/13 64/99/13 15/100/13 21/101/13 

vt 0.964567 0.15748
vn 1 0 -0
vt 0.964567 0.11811
f 64/102/14 60/99/14 58/100/14 15/103/14 

vn -1 0 -0
vt -0.964567 0.15748
vt -0.964567 0.11811
f 61/92/15 65/104/15 21/105/15 59/95/15 

f 61/91/5 62/96/5 65/26/5

f 4/97/5 65/26/5 62/96/5

vt 1 0
vt 1 0.15748
f 40/2/14 1/106/14 4/107/14 62/3/14 

vt 1.98031 0.15748
f 11/2/13 40/96/13 62/108/13 63/3/13 

vt -1 0
vt -1 0.15748
f 2/109/15 11/2/15 63/3/15 3/110/15 

v 44.5 3 -4.5
vt 1.75197 0.177165
f 21/26/5 66/111/5 59/91/5

v 44.4455 3 -4.91411
vt 1.74982 0.193469
f 21/26/5 67/112/5 66/111/5

v 44.2856 3 -5.3
vt 1.74353 0.208661
f 21/26/5 68/113/5 67/112/5

v 44.0314 3 -5.63137
vt 1.73352 0.221708
f 21/26/5 69/114/5 68/113/5

v 43.7 3 -5.88564
vt 1.72047 0.231718
f 21/26/5 70/115/5 69/114/5

v 43.3141 3 -6.04548
vt 1.70528 0.238011
f 21/26/5 71/116/5 70/115/5

v 42.9 3 -6.1
vt 1.68898 0.240157
f 21/26/5 72/117/5 71/116/5

v 42.4859 3 -6.04548
vt 1.67267 0.238011
f 21/26/5 73/118/5 72/117/5

v 42.1 3 -5.88564
vt 1.65748 0.231718
f 21/26/5 74/119/5 73/118/5

v 41.7686 3 -5.63137
vt 1.64443 0.221708
f 21/26/5 75/120/5 74/119/5

v 41.5144 3 -5.3
vt 1.63442 0.208661
f 21/26/5 76/121/5 75/120/5

v 41.3545 3 -4.91411
vt 1.62813 0.193469
f 21/26/5 77/122/5 76/121/5

v 39.4 3 -4.5
vt 1.55118 0.177165
f 21/26/5 78/123/5 77/122/5

v 32.4 3 -4.5
vt 1.27559 0.177165
f 21/26/5 79/124/5 78/123/5

v 10.2 3 -21.5
vt 0.401575 0.846457
f 21/26/5 80/125/5 79/124/5

v 10.1455 3 -21.9141
vt 0.399428 0.86276
f 21/26/5 81/126/5 80/125/5

v 9.98564 3 -22.3
vt 0.393135 0.877953
f 21/26/5 82/127/5 81/126/5

v 9.73137 3 -22.6314
vt 0.383125 0.890999
f 21/26/5 83/128/5 82/127/5

v 9.4 3 -22.8856
vt 0.370079 0.901009
f 21/26/5 84/129/5 83/128/5

f 21/26/5 22/27/5 84/129/5

vt -0.00289322 0.11811
vn -0.5 0 0.866025
vt -0.0193375 0.11811
vt -0.0193375 -2.77556e-017
vt -0.00289322 -2.77556e-017
f 84/130/16 22/131/6 23/132/6 24/133/16 

vt -0.238452 0.11811
vn -0.707107 0 0.707107
vt -0.254897 0.11811
vt -0.254897 -2.77556e-017
vt -0.238452 -2.77556e-017
f 83/134/17 84/135/16 24/136/16 25/137/17 

vt -0.457201 0.11811
vn -0.866025 0 0.5
vt -0.473645 0.11811
vt -0.473645 -2.77556e-017
vt -0.457201 -2.77556e-017
f 82/138/18 83/139/17 25/140/17 26/141/18 

vt -0.644232 0.11811
vn -0.965926 0 0.258819
vt -0.660676 0.11811
vt -0.660676 -2.77556e-017
vt -0.644232 -2.77556e-017
f 81/142/19 82/143/18 26/144/18 27/145/19 

vt -0.786799 0.11811
vn -1 0 4.47921e-016
vt -0.803243 0.11811
vt -0.803243 -2.77556e-017
vt -0.786799 -2.77556e-017
f 80/146/20 81/147/19 27/148/19 28/149/20 

v 10.1455 3 -21.0859
vt -0.875187 0.11811
vn -0.965926 0 -0.258819
vt -0.891631 0.11811
vt -0.891631 -2.77556e-017
v 10.1455 -7.04992e-016 -21.0859
vt -0.875187 -2.77556e-017
f 85/150/21 80/151/20 28/152/20 86/153/21 

vt 0.399428 0.830153
f 85/154/5 57/89/5 80/125/5

v 9.98564 3 -20.7
vt 0.393135 0.814961
f 87/155/5 57/89/5 85/154/5

v 9.73137 3 -20.3686
vt 0.383125 0.801915
f 88/156/5 57/89/5 87/155/5

v 9.4 3 -20.1144
vt 0.370079 0.791904
f 89/157/5 57/89/5 88/156/5

v 9.01411 3 -19.9545
vt 0.354886 0.785611
f 90/158/5 57/89/5 89/157/5

v 8.6 3 -19.9
vt 0.338583 0.783465
f 91/159/5 57/89/5 90/158/5

v 8.18589 3 -19.9545
vt 0.322279 0.785611
f 92/160/5 57/89/5 91/159/5

f 56/88/5 57/89/5 92/160/5

vt 0.0193375 0.11811
vn 0.5 0 -0.866025
vt 0.00289322 0.11811
vn 0.258819 0 -0.965926
v 8.18589 -7.04992e-016 -19.9545
vt 0.00289322 -2.77556e-017
vt 0.0193375 -2.77556e-017
f 56/161/22 92/162/23 93/163/23 49/164/22 

vt -0.216979 0.11811
vt -0.233423 0.11811
vn 3.55537e-015 0 -1
v 8.6 -7.04992e-016 -19.9
vt -0.233423 -2.77556e-017
vt -0.216979 -2.77556e-017
f 92/165/23 91/166/24 94/167/24 93/168/23 

vt -0.437949 0.11811
vt -0.454393 0.11811
vn -0.258819 0 -0.965926
v 9.01411 -7.04992e-016 -19.9545
vt -0.454393 -2.77556e-017
vt -0.437949 -2.77556e-017
f 91/169/24 90/170/25 95/171/25 94/172/24 

vt -0.628512 0.11811
vt -0.644957 0.11811
vn -0.5 0 -0.866025
v 9.4 -7.04992e-016 -20.1144
vt -0.644957 -2.77556e-017
vt -0.628512 -2.77556e-017
f 90/173/25 89/174/26 96/175/26 95/176/25 

vt -0.775684 0.11811
vt -0.792128 0.11811
vn -0.707107 0 -0.707107
v 9.73137 -7.04992e-016 -20.3686
vt -0.792128 -2.77556e-017
vt -0.775684 -2.77556e-017
f 89/177/26 88/178/27 97/179/27 96/180/26 

vt -0.869433 0.11811
vt -0.885877 0.11811
vn -0.866025 0 -0.5
v 9.98564 -7.04992e-016 -20.7
vt -0.885877 -2.77556e-017
vt -0.869433 -2.77556e-017
f 88/181/27 87/182/28 98/183/28 97/184/27 

vt -0.903372 0.11811
vt -0.919816 0.11811
vt -0.919816 -2.77556e-017
vt -0.903372 -2.77556e-017
f 87/185/28 85/186/21 86/187/21 98/188/28 

vt -0.393135 0.814961
vt -0.399428 0.830153
f 48/76/2 98/189/2 86/190/2

vt -0.383125 0.801915
f 48/76/2 97/191/2 98/189/2

vt -0.370079 0.791904
f 48/76/2 96/192/2 97/191/2

vt -0.354886 0.785611
f 48/76/2 95/193/2 96/192/2

vt -0.338583 0.783465
f 48/76/2 94/194/2 95/193/2

vt -0.322279 0.785611
f 48/76/2 93/195/2 94/194/2

f 48/76/2 49/77/2 93/195/2

f 48/76/2 86/190/2 28/57/2

v 41.7686 2.11497e-015 -3.36863
vt -1.64443 0.132623
f 48/76/2 28/57/2 99/196/2

v 41.5144 2.11497e-015 -3.7
vt -1.63442 0.145669
f 99/196/2 28/57/2 100/197/2

v 41.3545 2.11497e-015 -4.08589
vt -1.62813 0.160862
f 100/197/2 28/57/2 101/198/2

v 41.3 2.11497e-015 -4.5
vt -1.62598 0.177165
f 101/198/2 28/57/2 102/199/2

v 41.3545 2.11497e-015 -4.91411
vt -1.62813 0.193469
f 28/57/2 103/200/2 102/199/2

f 28/57/2 29/58/2 103/200/2

vt 0.818245 0.11811
vt 0.801801 0.11811
vt 0.801801 8.32667e-017
vt 0.818245 8.32667e-017
f 76/201/11 77/202/3 103/203/3 29/204/11 

vt 0.404327 0.11811
v 41.3 3 -4.5
vt 0.387883 0.11811
vt 0.387883 8.32667e-017
vt 0.404327 8.32667e-017
f 77/205/3 104/206/14 102/207/14 103/208/3 

vt 1.62598 0.177165
f 77/122/5 78/123/5 104/209/5

v 41.3545 3 -4.08589
vt 1.62813 0.160862
f 78/123/5 105/210/5 104/209/5

v 41.5144 3 -3.7
vt 1.63442 0.145669
f 78/123/5 106/211/5 105/210/5

v 41.7686 3 -3.36863
vt 1.64443 0.132623
f 78/123/5 107/212/5 106/211/5

v 42.1 3 -3.11436
vt 1.65748 0.122613
f 78/123/5 108/213/5 107/212/5

v 39.4 3 -2.5
vt 1.55118 0.0984252
f 109/214/5 108/213/5 78/123/5

v 42.4859 3 -2.95452
vt 1.67267 0.11632
f 109/214/5 110/215/5 108/213/5

f 109/214/5 59/91/5 110/215/5

f 57/89/5 59/91/5 109/214/5

vt -1.27559 0.11811
vt -1.55118 0.11811
v 39.4 1 -2.5
vt -1.55118 0.0393701
v 32.4 1 -2.5
vt -1.27559 0.0393701
f 57/216/1 109/217/1 111/218/1 112/219/1 

vt -0.0984252 0.11811
vt -0.177165 0.11811
v 39.4 1 -4.5
vt -0.177165 0.0393701
vt -0.0984252 0.0393701
f 109/220/15 78/221/15 113/222/15 111/223/15 

vt 1.55118 0.11811
vt 1.27559 0.11811
v 32.4 1 -4.5
vt 1.27559 0.0393701
vt 1.55118 0.0393701
f 78/224/13 79/225/13 114/226/13 113/227/13 

vt 0.177165 0.11811
vt 0.0984252 0.11811
vt 0.0984252 0.0393701
vt 0.177165 0.0393701
f 79/228/14 57/229/14 112/230/14 114/231/14 

f 79/124/5 80/125/5 57/89/5

f 114/124/5 112/89/5 111/214/5 113/123/5 

v 42.9 3 -2.9
vt 1.68898 0.114173
f 110/215/5 59/91/5 115/232/5

v 43.3141 3 -2.95452
vt 1.70528 0.11632
f 115/232/5 59/91/5 116/233/5

v 43.7 3 -3.11436
vt 1.72047 0.122613
f 116/233/5 59/91/5 117/234/5

v 44.0314 3 -3.36863
vt 1.73352 0.132623
f 117/234/5 59/91/5 118/235/5

v 44.2856 3 -3.7
vt 1.74353 0.145669
f 118/235/5 59/91/5 119/236/5

v 44.4455 3 -4.08589
vt 1.74982 0.160862
f 119/236/5 59/91/5 120/237/5

f 120/237/5 59/91/5 66/111/5

vt -0.387883 0.11811
vt -0.404327 0.11811
vn -1 0 -3.35941e-016
vt -0.404327 8.32667e-017
vt -0.387883 8.32667e-017
f 120/238/21 66/239/29 39/240/29 41/241/21 

vt 0.0530281 0.11811
vt 0.0365839 0.11811
vt 0.0365839 8.32667e-017
vt 0.0530281 8.32667e-017
f 66/242/29 67/243/19 38/244/19 39/245/29 

vt 0.490886 0.11811
vt 0.474442 0.11811
vt 0.474442 8.32667e-017
vt 0.490886 8.32667e-017
f 67/246/19 68/247/18 37/248/18 38/249/19 

vt 0.895851 0.11811
vt 0.879407 0.11811
vt 0.879407 8.32667e-017
vt 0.895851 8.32667e-017
f 68/250/18 69/251/17 36/252/17 37/253/18 

vt 1.24033 0.11811
vt 1.22388 0.11811
vt 1.22388 8.32667e-017
vt 1.24033 8.32667e-017
f 69/254/17 70/255/16 35/256/16 36/257/17 

vt 1.50083 0.11811
vt 1.48439 0.11811
vt 1.48439 8.32667e-017
vt 1.50083 8.32667e-017
f 70/258/16 71/259/6 34/260/6 35/261/16 

vt 1.65962 0.11811
vt 1.64318 0.11811
vn 8.39852e-016 0 1
vt 1.64318 8.32667e-017
vt 1.65962 8.32667e-017
f 71/262/6 72/263/30 33/264/30 34/265/6 

vt 1.70587 0.11811
vt 1.68943 0.11811
vt 1.68943 8.32667e-017
vt 1.70587 8.32667e-017
f 72/266/30 73/267/8 32/268/8 33/269/30 

vt 1.63643 0.11811
vt 1.61999 0.11811
vt 1.61999 8.32667e-017
vt 1.63643 8.32667e-017
f 73/270/8 74/271/9 31/272/9 32/273/8 

vt 1.45603 0.11811
vt 1.43958 0.11811
vt 1.43958 8.32667e-017
vt 1.45603 8.32667e-017
f 74/274/9 75/275/10 30/276/10 31/277/9 

vt 1.17696 0.11811
vt 1.16052 0.11811
vt 1.16052 8.32667e-017
vt 1.17696 8.32667e-017
f 75/278/10 76/279/11 29/280/11 30/281/10 

vt -0.801801 0.11811
vt -0.818245 0.11811
vt -0.818245 8.32667e-017
vt -0.801801 8.32667e-017
f 119/282/28 120/283/21 41/284/21 42/285/28 

vt -1.16052 0.11811
vt -1.17696 0.11811
vt -1.17696 8.32667e-017
vt -1.16052 8.32667e-017
f 118/286/27 119/287/28 42/288/28 43/289/27 

vt -1.43958 0.11811
vt -1.45603 0.11811
vt -1.45603 8.32667e-017
vt -1.43958 8.32667e-017
f 117/290/26 118/291/27 43/292/27 44/293/26 

vt -1.61999 0.11811
vt -1.63643 0.11811
vt -1.63643 8.32667e-017
vt -1.61999 8.32667e-017
f 116/294/25 117/295/26 44/296/26 45/297/25 

vt -1.68943 0.11811
vn -4.19926e-016 0 -1
vt -1.70587 0.11811
vt -1.70587 8.32667e-017
vt -1.68943 8.32667e-017
f 115/298/31 116/299/25 45/300/25 46/301/31 

vt -1.64318 0.11811
vt -1.65962 0.11811
vt -1.65962 8.32667e-017
vt -1.64318 8.32667e-017
f 110/302/23 115/303/31 46/304/31 47/305/23 

vt -1.48439 0.11811
vt -1.50083 0.11811
vt -1.50083 8.32667e-017
vt -1.48439 8.32667e-017
f 108/306/22 110/307/23 47/308/23 48/309/22 

vt -1.22388 0.11811
vn 0.707107 0 -0.707107
vt -1.24033 0.11811
vt -1.24033 8.32667e-017
vt -1.22388 8.32667e-017
f 107/310/32 108/311/22 48/312/22 99/313/32 

vt -0.879407 0.11811
vn 0.866025 0 -0.5
vt -0.895851 0.11811
vt -0.895851 8.32667e-017
vt -0.879407 8.32667e-017
f 106/314/33 107/315/32 99/316/32 100/317/33 

vt -0.474442 0.11811
vt -0.490886 0.11811
vt -0.490886 8.32667e-017
vt -0.474442 8.32667e-017
f 105/318/12 106/319/33 100/320/33 101/321/12 

vt -0.0365839 0.11811
vt -0.0530281 0.11811
vt -0.0530281 8.32667e-017
vt -0.0365839 8.32667e-017
f 104/322/14 105/323/12 101/324/12 102/325/14 

vt 0.254897 0.11811
vt 0.238452 0.11811
vt 0.238452 -2.77556e-017
vt 0.254897 -2.77556e-017
f 55/326/32 56/327/22 49/328/22 50/329/32 

vt 0.473645 0.11811
vt 0.457201 0.11811
vt 0.457201 -2.77556e-017
vt 0.473645 -2.77556e-017
f 54/330/33 55/331/32 50/332/32 51/333/33 

vt 0.660676 0.11811
vt 0.644232 0.11811
vt 0.644232 -2.77556e-017
vt 0.660676 -2.77556e-017
f 53/334/12 54/335/33 51/336/33 52/337/12 

